<!-- favicon -->
<svg class="owvp-favicon" viewBox="0 96 960 960">
  <path d="M 166 332 C 138.667 366 117.5 403.833 102.5 445.5 C 87.5 487.167 80 531.333 80 578 C 80 683.333 115.167 773.667 185.5 849 C 255.833 924.333 342 966.667 444 976 L 444 916 C 358.667 906.667 286.667 870.167 228 806.5 C 169.333 742.833 140 666.667 140 578 C 140 540 146.167 503.667 158.5 469 C 170.833 434.333 187.667 402.667 209 374 L 166 332 Z" style="fill-rule: nonzero; paint-order: fill; fill: rgb(34, 147, 66);"/>
  <path d="M 387 417 L 387 759 L 655 588 L 387 417 Z" style="fill-rule: nonzero; paint-order: fill; fill: rgb(26, 115, 232);"/>
  <path d="M 795 332 L 752 374 C 773.333 402.667 790 434.333 802 469 C 814 503.667 820 540 820 578 C 820 666 791 742 733 806 C 675 870 603 906.667 517 916 L 517 976 C 619.667 966.667 705.833 924.333 775.5 849 C 845.167 773.667 880 683.333 880 578 C 880 531.333 872.5 487.167 857.5 445.5 C 842.5 403.833 821.667 366 795 332 Z" style="fill-rule: nonzero; paint-order: fill; fill: rgb(251, 193, 22);"/>
  <path d="M 480 178 C 431.333 178 385.333 186.167 342 202.5 C 298.667 218.833 259.333 241.667 224 271 L 266 314 C 296 290 329 271.333 365 258 C 401 244.667 439.333 238 480 238 C 520.667 238 559.167 244.833 595.5 258.5 C 631.833 272.167 665 291 695 315 L 737 272 C 702.333 242.667 663.167 219.667 619.5 203 C 575.833 186.333 529.333 178 480 178 Z" style="fill-rule: nonzero; paint-order: fill; fill: rgb(227, 59, 46);"/>
</svg>
<!-- Icons for controls -->
<svg class="play-icon" viewBox="0 96 960 960"><path fill="currentColor" d="M320 853V293l440 280-440 280Z"/></svg>
<svg class="pause-icon" viewBox="0 96 960 960"><path fill="currentColor" d="M525 856V296h235v560H525Zm-325 0V296h235v560H200Z"/></svg>
<svg class="ffw-icon" viewBox="0 96 960 960"><path fill="currentColor" d="M104 816V336l346 240-346 240Zm407 0V336l346 240-346 240Z"/></svg>
<svg class="rwd-icon" viewBox="0 96 960 960"><path fill="currentColor" d="M854 816 508 576l346-240v480Zm-402 0L106 576l346-240v480Z"/></svg>
<svg class="next-icon" viewBox="0 96 960 960"><path fill="currentColor" d="M680 816V336h60v480h-60Zm-460 0V336l346 240-346 240Z"/></svg>
<svg class="prev-icon" viewBox="0 96 960 960"><path fill="currentColor" d="M220 816V336h60v480h-60Zm520 0L394 576l346-240v480Z"/></svg>
<svg class="subtitles-icon" viewBox="0 96 960 960"><path fill="currentColor" d="M240 586h60v-60h-60v60Zm0 120h360v-60H240v60Zm420 0h60v-60h-60v60ZM360 586h360v-60H360v60ZM140 896q-24 0-42-18t-18-42V316q0-24 18-42t42-18h680q24 0 42 18t18 42v520q0 24-18 42t-42 18H140Zm0-60h680V316H140v520Zm0 0V316v520Z"/></svg>
<svg class="plist-icon" viewBox="0 96 960 960"><path fill="currentColor" d="M100 726v-60h306v60H100Zm0-165v-60h473v60H100Zm0-165v-60h473v60H100Zm542 540V614l218 161-218 161Z"/></svg>
<svg class="fscr-icon" viewBox="0 96 960 960"><path fill="currentColor" d="M200 856V663h60v133h133v60H200Zm0-367V296h193v60H260v133h-60Zm367 367v-60h133V663h60v193H567Zm133-367V356H567v-60h193v193h-60Z"/></svg>
<svg class="fscr-close-icon" viewBox="0 96 960 960"><path fill="currentColor" d="M333 856V723H200v-60h193v193h-60Zm234 0V663h193v60H627v133h-60ZM200 489v-60h133V296h60v193H200Zm367 0V296h60v133h133v60H567Z"/></svg>
<svg class="pip-icon" viewBox="0 96 960 960"><path fill="currentColor" d="M446 613h335V356H446v257ZM140 896q-24 0-42-18t-18-42V316q0-24 18-42t42-18h680q24.75 0 42.375 18T880 316v520q0 24-17.625 42T820 896H140Zm0-60V316v520Zm0 0h680V316H140v520Zm366-283V416h215v137H506Z"/></svg>
<svg class="settings-icon" viewBox="0 96 960 960"><path fill="currentColor" d="m388 976-20-126q-19-7-40-19t-37-25l-118 54-93-164 108-79q-2-9-2.5-20.5T185 576q0-9 .5-20.5T188 535L80 456l93-164 118 54q16-13 37-25t40-18l20-127h184l20 126q19 7 40.5 18.5T669 346l118-54 93 164-108 77q2 10 2.5 21.5t.5 21.5q0 10-.5 21t-2.5 21l108 78-93 164-118-54q-16 13-36.5 25.5T592 850l-20 126H388Zm92-270q54 0 92-38t38-92q0-54-38-92t-92-38q-54 0-92 38t-38 92q0 54 38 92t92 38Z"/></svg>
<svg class="settings-new-icon" viewBox="0 96 960 960"><path fill="currentColor" d="M 406.4 896 L 390.4 795.2 C 380.266 791.466 369.6 786.4 358.4 780 C 347.2 773.6 337.334 766.934 328.8 760 L 234.4 803.2 L 160 672 L 246.4 608.8 C 245.334 604 244.666 598.534 244.4 592.4 C 244.134 586.266 244 580.8 244 576 C 244 571.2 244.134 565.734 244.4 559.6 C 244.666 553.466 245.334 548 246.4 543.2 L 160 480 L 234.4 348.8 L 328.8 392 C 337.334 385.066 347.2 378.4 358.4 372 C 369.6 365.6 380.266 360.8 390.4 357.6 L 406.4 256 L 553.6 256 L 569.6 356.8 C 579.734 360.534 590.534 365.466 602 371.6 C 613.466 377.734 623.2 384.534 631.2 392 L 725.6 348.8 L 800 480 L 713.6 541.6 C 714.666 546.934 715.334 552.666 715.6 558.8 C 715.866 564.934 716 570.666 716 576 C 716 581.334 715.866 586.934 715.6 592.8 C 715.334 598.666 714.666 604.266 713.6 609.6 L 800 672 L 725.6 803.2 L 631.2 760 C 622.666 766.934 612.934 773.734 602 780.4 C 591.066 787.066 580.266 792 569.6 795.2 L 553.6 896 L 406.4 896 Z M 480 680 C 508.8 680 533.334 669.866 553.6 649.6 C 573.866 629.334 584 604.8 584 576 C 584 547.2 573.866 522.666 553.6 502.4 C 533.334 482.134 508.8 472 480 472 C 451.2 472 426.666 482.134 406.4 502.4 C 386.134 522.666 376 547.2 376 576 C 376 604.8 386.134 629.334 406.4 649.6 C 426.666 669.866 451.2 680 480 680 Z" style=""/></svg>
<svg class="open-files-icon" viewBox="0 96 960 960"><path fill="currentColor" d="M140 896q-23 0-41.5-18.5T80 836V316q0-23 18.5-41.5T140 256h281l60 60h339q23 0 41.5 18.5T880 376H140v460l102-400h698L833 850q-6 24-22 35t-41 11H140Z"/></svg>
<svg class="open-files-new-icon" viewBox="0 96 960 960"><path fill="currentColor" d="M 162.791 850.343 C 149.645 850.343 137.785 845.056 127.212 834.483 C 116.638 823.91 111.351 812.049 111.351 798.904 L 111.351 353.096 C 111.351 339.951 116.638 328.091 127.212 317.517 C 137.785 306.944 149.645 301.657 162.791 301.657 L 403.698 301.657 L 455.138 353.096 L 745.77 353.096 C 758.915 353.096 770.776 358.383 781.349 368.957 C 791.922 379.53 797.21 391.39 797.21 404.536 L 162.791 404.536 L 162.791 798.904 L 250.238 455.975 L 848.649 455.975 L 756.915 810.907 C 753.486 824.624 747.199 834.626 738.054 840.913 C 728.909 847.2 717.193 850.343 702.904 850.343 L 162.791 850.343 Z"/></svg>
<svg class="chromeos-icon" viewBox="0 96 960 960"><path fill="currentColor" d="M 160 576 C 160 517.75 175.587 463 202.837 414.875 L 340.125 653.875 C 367.5 702.875 419.875 736 480 736 C 497.875 736 513.875 733.125 531 727.75 L 435.625 893 C 279.875 871.375 160 737.625 160 576 Z M 616.375 658 C 631.75 634 640 604.875 640 576 C 640 528.25 619 485.375 585.875 456 L 776.75 456 C 791.75 493 800 533.625 800 576 C 800 752.75 656.75 894.875 480 896 L 616.375 658 Z M 757.25 416 L 480 416 C 401.375 416 337.875 471.125 323.125 544.375 L 227.737 379.087 C 286.25 304.162 377.5 256 480 256 C 598.5 256 701.875 320.35 757.25 416 Z M 370 576 C 370 515.25 419.25 466 480 466 C 540.75 466 590 515.25 590 576 C 590 636.75 540.75 686 480 686 C 419.25 686 370 636.75 370 576 Z"/></svg>
<svg class="youtube-icon" viewBox="0 96 960 960"><path fill="currentColor" d="M 786.627 421.41 C 779.265 393.695 757.579 371.868 730.043 364.46 C 680.133 351 480 351 480 351 C 480 351 279.868 351 229.957 364.46 C 202.421 371.869 180.735 393.695 173.373 421.41 C 160 471.644 160 576.455 160 576.455 C 160 576.455 160 681.265 173.373 731.499 C 180.735 759.215 202.421 780.132 229.957 787.54 C 279.868 801 480 801 480 801 C 480 801 680.132 801 730.043 787.54 C 757.579 780.132 779.265 759.215 786.627 731.499 C 800 681.265 800 576.455 800 576.455 C 800 576.455 800 471.644 786.627 421.41 Z M 414.545 671.614 L 414.545 481.295 L 581.817 576.457 L 414.545 671.614 Z"/></svg>
<svg class="vol-off-icon" viewBox="0 96 960 960"><path fill="currentColor" d="M 162 682.89 L 162 470.501 L 303.41 470.501 L 480.173 293.51 L 480.173 859.88 L 303.41 682.89 L 162 682.89 Z"/></svg>
<svg class="vol-mute-icon" viewBox="0 96 960 960"><path fill="currentColor" d="M 782.87 955.537 L 665.277 837.943 C 648.647 849.822 630.68 860.065 611.38 868.678 C 592.078 877.29 572.033 883.972 551.246 888.722 L 551.246 833.489 C 564.906 829.331 578.12 824.729 590.89 819.68 C 603.658 814.632 615.685 807.951 626.969 799.637 L 479.978 651.754 L 479.978 862.887 L 301.806 684.715 L 159.268 684.715 L 159.268 470.909 L 298.243 470.909 L 102.253 274.921 L 140.561 236.613 L 821.177 916.339 L 782.87 955.537 Z M 750.8 748.858 L 712.491 710.551 C 724.37 690.357 733.13 668.976 738.773 646.409 C 744.414 623.84 747.236 600.678 747.236 576.921 C 747.236 515.748 729.419 460.961 693.784 412.558 C 658.149 364.155 610.636 333.42 551.246 320.354 L 551.246 265.121 C 624.89 281.751 684.876 319.018 731.2 376.923 C 777.525 434.83 800.687 501.495 800.687 576.921 C 800.687 607.21 796.53 636.907 788.214 666.008 C 779.899 695.109 767.428 722.726 750.8 748.858 Z M 631.423 629.482 L 551.246 549.306 L 551.246 433.492 C 579.16 446.56 600.986 466.158 616.725 492.29 C 632.463 518.421 640.331 546.929 640.331 577.812 C 640.331 586.72 639.589 595.481 638.105 604.092 C 636.62 612.705 634.394 621.168 631.423 629.482 Z M 479.978 478.036 L 387.328 385.387 L 479.978 292.737 L 479.978 478.036 Z"/></svg>
<svg class="vol-up-icon" viewBox="0 96 960 960"><path fill="currentColor" d="M 551.111 887.111 L 551.111 832 C 608.593 815.407 655.556 783.556 692 736.444 C 728.444 689.333 746.667 635.852 746.667 576 C 746.667 516.148 728.593 462.518 692.444 415.111 C 656.296 367.704 609.185 336 551.111 320 L 551.111 264.889 C 624.593 281.482 684.444 318.667 730.667 376.444 C 776.889 434.222 800 500.74 800 576 C 800 651.26 776.889 717.778 730.667 775.556 C 684.444 833.333 624.593 870.518 551.111 887.111 Z M 160 683.556 L 160 470.222 L 302.222 470.222 L 480 292.444 L 480 861.333 L 302.222 683.556 L 160 683.556 Z M 533.333 726.222 L 533.333 426.667 C 565.926 436.74 591.852 455.704 611.111 483.556 C 630.371 511.407 640 542.518 640 576.889 C 640 610.667 630.222 641.482 610.667 669.333 C 591.111 697.185 565.333 716.148 533.333 726.222 Z"/></svg>
<svg class="vol-down-icon" viewBox="0 96 960 960"><path fill="currentColor" d="M 162 682.89 L 162 470.501 L 303.593 470.501 L 480.583 293.51 L 480.583 859.88 L 303.593 682.89 L 162 682.89 Z M 533.679 725.367 L 533.679 427.139 C 565.538 437.168 591.201 456.047 610.67 483.775 C 630.139 511.503 639.874 542.476 639.874 576.695 C 639.874 611.503 630.139 642.476 610.67 669.615 C 591.201 696.753 565.538 715.337 533.679 725.367 Z"/></svg>