<svg class="play-icon" xmlns="http://www.w3.org/2000/svg" height="48" viewBox="0 96 960 960" width="48"><path d="M320 853V293l440 280-440 280Z"/></svg>
<svg class="pause-icon" xmlns="http://www.w3.org/2000/svg" height="48" viewBox="0 96 960 960" width="48"><path d="M525 856V296h235v560H525Zm-325 0V296h235v560H200Z"/></svg>
<svg class="ffw-icon" xmlns="http://www.w3.org/2000/svg" height="48" viewBox="0 96 960 960" width="48"><path d="M104 816V336l346 240-346 240Zm407 0V336l346 240-346 240Z"/></svg>
<svg class="rwd-icon" xmlns="http://www.w3.org/2000/svg" height="48" viewBox="0 96 960 960" width="48"><path d="M854 816 508 576l346-240v480Zm-402 0L106 576l346-240v480Z"/></svg>
<svg class="next-icon" xmlns="http://www.w3.org/2000/svg" height="48" viewBox="0 96 960 960" width="48"><path d="M680 816V336h60v480h-60Zm-460 0V336l346 240-346 240Z"/></svg>
<svg class="prev-icon" xmlns="http://www.w3.org/2000/svg" height="48" viewBox="0 96 960 960" width="48"><path d="M220 816V336h60v480h-60Zm520 0L394 576l346-240v480Z"/></svg>
<svg class="subt-icon" xmlns="http://www.w3.org/2000/svg" height="48" viewBox="0 96 960 960" width="48"><path d="M240 586h60v-60h-60v60Zm0 120h360v-60H240v60Zm420 0h60v-60h-60v60ZM360 586h360v-60H360v60ZM140 896q-24 0-42-18t-18-42V316q0-24 18-42t42-18h680q24 0 42 18t18 42v520q0 24-18 42t-42 18H140Zm0-60h680V316H140v520Zm0 0V316v520Z"/></svg>
<svg class="plist-icon" xmlns="http://www.w3.org/2000/svg" height="48" viewBox="0 96 960 960" width="48"><path d="M100 726v-60h306v60H100Zm0-165v-60h473v60H100Zm0-165v-60h473v60H100Zm542 540V614l218 161-218 161Z"/></svg>
<svg class="fill-icon" xmlns="http://www.w3.org/2000/svg" height="48" viewBox="0 96 960 960" width="48"><path d="M200 856V663h60v133h133v60H200Zm0-367V296h193v60H260v133h-60Zm367 367v-60h133V663h60v193H567Zm133-367V356H567v-60h193v193h-60Z"/></svg>
<svg class="pip-icon" xmlns="http://www.w3.org/2000/svg" height="48" viewBox="0 96 960 960" width="48"><path d="M446 613h335V356H446v257ZM140 896q-24 0-42-18t-18-42V316q0-24 18-42t42-18h680q24.75 0 42.375 18T880 316v520q0 24-17.625 42T820 896H140Zm0-60V316v520Zm0 0h680V316H140v520Zm366-283V416h215v137H506Z"/></svg>
<svg class="settings-icon" xmlns="http://www.w3.org/2000/svg" height="48" viewBox="0 96 960 960" width="48"><path d="m388 976-20-126q-19-7-40-19t-37-25l-118 54-93-164 108-79q-2-9-2.5-20.5T185 576q0-9 .5-20.5T188 535L80 456l93-164 118 54q16-13 37-25t40-18l20-127h184l20 126q19 7 40.5 18.5T669 346l118-54 93 164-108 77q2 10 2.5 21.5t.5 21.5q0 10-.5 21t-2.5 21l108 78-93 164-118-54q-16 13-36.5 25.5T592 850l-20 126H388Zm92-270q54 0 92-38t38-92q0-54-38-92t-92-38q-54 0-92 38t-38 92q0 54 38 92t92 38Z"/></svg>