<?xml version="1.0" standalone="no"?>
<!DOCTYPE svg PUBLIC "-//W3C//DTD SVG 20010904//EN"
 "http://www.w3.org/TR/2001/REC-SVG-20010904/DTD/svg10.dtd">
<svg version="1.0" xmlns="http://www.w3.org/2000/svg"
 width="700.000000pt" height="700.000000pt" viewBox="0 0 700.000000 700.000000"
 preserveAspectRatio="xMidYMid meet">
<metadata>
Created by potrace 1.14, written by Peter Selinger 2001-2017
</metadata>
<g transform="translate(0.000000,700.000000) scale(0.100000,-0.100000)"
fill="#000000" stroke="none">
<path d="M3488 6406 c-1 -2 -66 -6 -143 -10 -77 -3 -149 -8 -160 -10 -11 -2
-46 -7 -79 -11 -78 -9 -139 -20 -233 -40 -13 -3 -33 -7 -45 -10 -80 -17 -262
-75 -372 -117 -127 -50 -370 -169 -457 -224 -180 -114 -354 -242 -354 -261 0
-6 67 -79 148 -162 l148 -150 78 59 c310 233 728 410 1096 465 22 4 50 8 62
10 137 22 527 22 644 0 10 -2 39 -7 66 -11 26 -3 55 -8 63 -10 28 -5 155 -34
170 -39 325 -92 612 -231 862 -418 l87 -65 150 156 c126 130 149 158 138 170
-17 21 -189 150 -272 203 -387 251 -796 398 -1260 454 -22 2 -101 7 -175 11
-74 3 -140 7 -147 9 -6 2 -13 2 -15 1z"/>
<path d="M1142 5188 c-114 -154 -182 -266 -265 -433 -85 -172 -181 -428 -203
-545 -3 -14 -10 -43 -16 -65 -12 -47 -13 -53 -33 -165 -29 -169 -39 -296 -39
-505 0 -229 19 -422 60 -620 25 -118 89 -346 114 -400 5 -11 25 -60 45 -110
39 -96 122 -258 189 -367 154 -253 428 -566 656 -748 24 -19 48 -39 54 -45 58
-52 247 -178 371 -248 116 -65 306 -154 365 -172 14 -4 39 -13 55 -20 96 -40
392 -116 510 -130 28 -4 57 -8 65 -11 15 -4 108 -15 145 -18 19 -1 20 6 21
216 l1 218 -31 4 c-17 3 -65 10 -106 16 -110 17 -306 66 -421 106 -411 143
-781 397 -1070 735 -30 35 -59 69 -65 75 -34 37 -160 223 -209 309 -136 238
-234 509 -275 765 -7 41 -14 84 -16 95 -25 134 -24 565 1 710 3 17 10 57 16
90 41 242 179 606 306 807 12 21 23 40 23 43 0 3 5 11 10 18 6 7 36 50 67 96
l56 85 -157 153 -156 154 -68 -93z"/>
<path d="M5779 5263 c-9 -10 -77 -78 -152 -151 -76 -73 -137 -136 -137 -139 0
-3 29 -49 64 -102 201 -303 360 -705 392 -991 3 -25 8 -52 10 -60 24 -71 24
-648 0 -689 -2 -3 -7 -30 -10 -60 -19 -159 -95 -418 -174 -598 -85 -189 -198
-373 -336 -543 -102 -127 -338 -356 -448 -435 -78 -57 -197 -136 -248 -165
-78 -44 -278 -140 -293 -140 -7 0 -17 -4 -23 -9 -14 -14 -252 -89 -339 -107
-85 -18 -137 -28 -215 -39 -25 -3 -57 -8 -72 -11 l-28 -6 0 -218 0 -219 23 4
c12 2 47 6 77 10 30 3 66 7 80 9 14 3 43 7 65 11 225 33 562 140 775 245 193
95 449 259 555 357 11 10 36 31 55 47 72 58 260 247 345 346 50 58 149 191
191 255 21 33 42 62 45 65 25 21 181 324 228 443 69 174 144 433 157 545 3 26
7 49 9 52 2 3 7 33 10 65 4 33 9 63 11 66 15 26 23 496 11 634 -45 497 -204
946 -483 1365 -45 69 -93 138 -106 153 -22 27 -24 27 -39 10z"/>
<path d="M2821 3409 c0 -682 4 -1239 8 -1237 9 3 138 85 621 394 813 520 1119
714 1215 774 57 36 103 69 102 73 -1 4 -39 31 -85 60 -45 29 -219 140 -387
247 -168 107 -331 211 -363 231 -141 88 -1040 663 -1064 680 -15 10 -32 19
-37 19 -7 0 -10 -425 -10 -1241z"/>
</g>
</svg>
