<?xml version="1.0" encoding="utf-8"?>
<svg height="48" viewBox="0 96 960 960" width="48" xmlns="http://www.w3.org/2000/svg">
  <path d="M 160 576 C 160 517.75 175.587 463 202.837 414.875 L 340.125 653.875 C 367.5 702.875 419.875 736 480 736 C 497.875 736 513.875 733.125 531 727.75 L 435.625 893 C 279.875 871.375 160 737.625 160 576 Z M 616.375 658 C 631.75 634 640 604.875 640 576 C 640 528.25 619 485.375 585.875 456 L 776.75 456 C 791.75 493 800 533.625 800 576 C 800 752.75 656.75 894.875 480 896 L 616.375 658 Z M 757.25 416 L 480 416 C 401.375 416 337.875 471.125 323.125 544.375 L 227.737 379.087 C 286.25 304.162 377.5 256 480 256 C 598.5 256 701.875 320.35 757.25 416 Z M 370 576 C 370 515.25 419.25 466 480 466 C 540.75 466 590 515.25 590 576 C 590 636.75 540.75 686 480 686 C 419.25 686 370 636.75 370 576 Z" style=""/>
</svg>