<?xml version="1.0" encoding="utf-8"?>
<svg height="48" viewBox="0 96 960 960" width="48" xmlns="http://www.w3.org/2000/svg">
  <path d="M 162.791 850.343 C 149.645 850.343 137.785 845.056 127.212 834.483 C 116.638 823.91 111.351 812.049 111.351 798.904 L 111.351 353.096 C 111.351 339.951 116.638 328.091 127.212 317.517 C 137.785 306.944 149.645 301.657 162.791 301.657 L 403.698 301.657 L 455.138 353.096 L 745.77 353.096 C 758.915 353.096 770.776 358.383 781.349 368.957 C 791.922 379.53 797.21 391.39 797.21 404.536 L 162.791 404.536 L 162.791 798.904 L 250.238 455.975 L 848.649 455.975 L 756.915 810.907 C 753.486 824.624 747.199 834.626 738.054 840.913 C 728.909 847.2 717.193 850.343 702.904 850.343 L 162.791 850.343 Z" style=""/>
</svg>