<?xml version="1.0" encoding="utf-8"?>
<svg height="48" viewBox="0 96 960 960" width="48" xmlns="http://www.w3.org/2000/svg">
  <path d="M 765.898 896 L 661.214 791.316 C 646.41 801.89 630.417 811.01 613.234 818.677 C 596.051 826.343 578.207 832.291 559.703 836.52 L 559.703 787.351 C 571.863 783.649 583.627 779.553 594.994 775.058 C 606.361 770.564 617.067 764.616 627.113 757.214 L 496.258 625.566 L 496.258 813.522 L 337.646 654.91 L 210.756 654.91 L 210.756 464.575 L 334.473 464.575 L 160 290.102 L 194.102 256 L 800 861.105 L 765.898 896 Z M 737.348 712.01 L 703.247 677.908 C 713.82 659.932 721.619 640.899 726.642 620.808 C 731.664 600.717 734.176 580.098 734.176 558.949 C 734.176 504.492 718.315 455.719 686.592 412.629 C 654.87 369.54 612.574 342.18 559.703 330.548 L 559.703 281.378 C 625.263 296.182 678.662 329.358 719.901 380.907 C 761.14 432.456 781.76 491.803 781.76 558.949 C 781.76 585.913 778.058 612.348 770.657 638.255 C 763.255 664.162 752.152 688.747 737.348 712.01 Z M 631.078 605.74 L 559.703 534.364 L 559.703 431.266 C 584.552 442.898 603.982 460.346 617.993 483.608 C 632.004 506.871 639.009 532.249 639.009 559.742 C 639.009 567.673 638.348 575.471 637.026 583.138 C 635.704 590.804 633.721 598.338 631.078 605.74 Z M 496.258 470.919 L 413.779 388.441 L 496.258 305.963 L 496.258 470.919 Z" style=""/>
</svg>