<?xml version="1.0" encoding="utf-8"?>
<svg height="48" viewBox="0 96 960 960" width="48" xmlns="http://www.w3.org/2000/svg">
  <path d="M 166 332 C 138.667 366 117.5 403.833 102.5 445.5 C 87.5 487.167 80 531.333 80 578 C 80 683.333 115.167 773.667 185.5 849 C 255.833 924.333 342 966.667 444 976 L 444 916 C 358.667 906.667 286.667 870.167 228 806.5 C 169.333 742.833 140 666.667 140 578 C 140 540 146.167 503.667 158.5 469 C 170.833 434.333 187.667 402.667 209 374 L 166 332 Z" style="fill-rule: nonzero; paint-order: fill; fill: rgb(34, 147, 66);"/>
  <path d="M 387 417 L 387 759 L 655 588 L 387 417 Z" style="fill-rule: nonzero; paint-order: fill; fill: rgb(26, 115, 232);"/>
  <path d="M 795 332 L 752 374 C 773.333 402.667 790 434.333 802 469 C 814 503.667 820 540 820 578 C 820 666 791 742 733 806 C 675 870 603 906.667 517 916 L 517 976 C 619.667 966.667 705.833 924.333 775.5 849 C 845.167 773.667 880 683.333 880 578 C 880 531.333 872.5 487.167 857.5 445.5 C 842.5 403.833 821.667 366 795 332 Z" style="fill-rule: nonzero; paint-order: fill; fill: rgb(251, 193, 22);"/>
  <path d="M 480 178 C 431.333 178 385.333 186.167 342 202.5 C 298.667 218.833 259.333 241.667 224 271 L 266 314 C 296 290 329 271.333 365 258 C 401 244.667 439.333 238 480 238 C 520.667 238 559.167 244.833 595.5 258.5 C 631.833 272.167 665 291 695 315 L 737 272 C 702.333 242.667 663.167 219.667 619.5 203 C 575.833 186.333 529.333 178 480 178 Z" style="fill-rule: nonzero; paint-order: fill; fill: rgb(227, 59, 46);"/>
</svg>