<?xml version="1.0" encoding="utf-8"?>
<svg height="48" viewBox="0 96 960 960" width="48" xmlns="http://www.w3.org/2000/svg">
  <path d="M 406.4 896 L 390.4 795.2 C 380.266 791.466 369.6 786.4 358.4 780 C 347.2 773.6 337.334 766.934 328.8 760 L 234.4 803.2 L 160 672 L 246.4 608.8 C 245.334 604 244.666 598.534 244.4 592.4 C 244.134 586.266 244 580.8 244 576 C 244 571.2 244.134 565.734 244.4 559.6 C 244.666 553.466 245.334 548 246.4 543.2 L 160 480 L 234.4 348.8 L 328.8 392 C 337.334 385.066 347.2 378.4 358.4 372 C 369.6 365.6 380.266 360.8 390.4 357.6 L 406.4 256 L 553.6 256 L 569.6 356.8 C 579.734 360.534 590.534 365.466 602 371.6 C 613.466 377.734 623.2 384.534 631.2 392 L 725.6 348.8 L 800 480 L 713.6 541.6 C 714.666 546.934 715.334 552.666 715.6 558.8 C 715.866 564.934 716 570.666 716 576 C 716 581.334 715.866 586.934 715.6 592.8 C 715.334 598.666 714.666 604.266 713.6 609.6 L 800 672 L 725.6 803.2 L 631.2 760 C 622.666 766.934 612.934 773.734 602 780.4 C 591.066 787.066 580.266 792 569.6 795.2 L 553.6 896 L 406.4 896 Z M 480 680 C 508.8 680 533.334 669.866 553.6 649.6 C 573.866 629.334 584 604.8 584 576 C 584 547.2 573.866 522.666 553.6 502.4 C 533.334 482.134 508.8 472 480 472 C 451.2 472 426.666 482.134 406.4 502.4 C 386.134 522.666 376 547.2 376 576 C 376 604.8 386.134 629.334 406.4 649.6 C 426.666 669.866 451.2 680 480 680 Z" style=""/>
</svg>