<?xml version="1.0" encoding="utf-8"?>
<svg height="48" viewBox="0 96 960 960" width="48" xmlns="http://www.w3.org/2000/svg">
  <path d="M 782.87 955.537 L 665.277 837.943 C 648.647 849.822 630.68 860.065 611.38 868.678 C 592.078 877.29 572.033 883.972 551.246 888.722 L 551.246 833.489 C 564.906 829.331 578.12 824.729 590.89 819.68 C 603.658 814.632 615.685 807.951 626.969 799.637 L 479.978 651.754 L 479.978 862.887 L 301.806 684.715 L 159.268 684.715 L 159.268 470.909 L 298.243 470.909 L 102.253 274.921 L 140.561 236.613 L 821.177 916.339 L 782.87 955.537 Z M 750.8 748.858 L 712.491 710.551 C 724.37 690.357 733.13 668.976 738.773 646.409 C 744.414 623.84 747.236 600.678 747.236 576.921 C 747.236 515.748 729.419 460.961 693.784 412.558 C 658.149 364.155 610.636 333.42 551.246 320.354 L 551.246 265.121 C 624.89 281.751 684.876 319.018 731.2 376.923 C 777.525 434.83 800.687 501.495 800.687 576.921 C 800.687 607.21 796.53 636.907 788.214 666.008 C 779.899 695.109 767.428 722.726 750.8 748.858 Z M 631.423 629.482 L 551.246 549.306 L 551.246 433.492 C 579.16 446.56 600.986 466.158 616.725 492.29 C 632.463 518.421 640.331 546.929 640.331 577.812 C 640.331 586.72 639.589 595.481 638.105 604.092 C 636.62 612.705 634.394 621.168 631.423 629.482 Z M 479.978 478.036 L 387.328 385.387 L 479.978 292.737 L 479.978 478.036 Z" style=""/>
</svg>