<?xml version="1.0" encoding="utf-8"?>
<svg height="48" viewBox="0 96 960 960" width="48" xmlns="http://www.w3.org/2000/svg">
  <path d="M 551.111 887.111 L 551.111 832 C 608.593 815.407 655.556 783.556 692 736.444 C 728.444 689.333 746.667 635.852 746.667 576 C 746.667 516.148 728.593 462.518 692.444 415.111 C 656.296 367.704 609.185 336 551.111 320 L 551.111 264.889 C 624.593 281.482 684.444 318.667 730.667 376.444 C 776.889 434.222 800 500.74 800 576 C 800 651.26 776.889 717.778 730.667 775.556 C 684.444 833.333 624.593 870.518 551.111 887.111 Z M 160 683.556 L 160 470.222 L 302.222 470.222 L 480 292.444 L 480 861.333 L 302.222 683.556 L 160 683.556 Z M 533.333 726.222 L 533.333 426.667 C 565.926 436.74 591.852 455.704 611.111 483.556 C 630.371 511.407 640 542.518 640 576.889 C 640 610.667 630.222 641.482 610.667 669.333 C 591.111 697.185 565.333 716.148 533.333 726.222 Z" style=""/>
</svg>