<?xml version="1.0" encoding="utf-8"?>
<svg height="48" viewBox="0 96 960 960" width="48" xmlns="http://www.w3.org/2000/svg">
  <path d="M 786.627 421.41 C 779.265 393.695 757.579 371.868 730.043 364.46 C 680.133 351 480 351 480 351 C 480 351 279.868 351 229.957 364.46 C 202.421 371.869 180.735 393.695 173.373 421.41 C 160 471.644 160 576.455 160 576.455 C 160 576.455 160 681.265 173.373 731.499 C 180.735 759.215 202.421 780.132 229.957 787.54 C 279.868 801 480 801 480 801 C 480 801 680.132 801 730.043 787.54 C 757.579 780.132 779.265 759.215 786.627 731.499 C 800 681.265 800 576.455 800 576.455 C 800 576.455 800 471.644 786.627 421.41 Z M 414.545 671.614 L 414.545 481.295 L 581.817 576.457 L 414.545 671.614 Z" style=""/>
</svg>