<?xml version="1.0" encoding="utf-8"?>
<svg height="48" viewBox="0 96 960 960" width="48" xmlns="http://www.w3.org/2000/svg">
  <path d="M 916.092 356.138 C 905.623 316.722 874.78 285.678 835.618 275.143 C 764.635 256 480 256 480 256 C 480 256 195.367 256 124.382 275.143 C 85.22 285.68 54.377 316.722 43.908 356.138 C 24.888 427.583 24.888 576.647 24.888 576.647 C 24.888 576.647 24.888 725.71 43.908 797.155 C 54.377 836.572 85.22 866.322 124.382 876.857 C 195.367 896 480 896 480 896 C 480 896 764.633 896 835.618 876.857 C 874.78 866.322 905.623 836.572 916.092 797.155 C 935.112 725.71 935.112 576.647 935.112 576.647 C 935.112 576.647 935.112 427.583 916.092 356.138 Z M 386.908 711.985 L 386.908 441.308 L 624.807 576.65 L 386.908 711.985 Z" style=""/>
</svg>